Video Source :- English High Definition
Audio Source :- Hindi Dvd
Ripper :- Shahz-Mk


Complete name :-  RUSH.HOUR.1.1998.HDRIP.720p[Shahz-Mk].mkv
Format                           : Matroska
File size                        : 1 024 MiB
Duration                         : 1h 37mn
Overall bit rate                 : 1 474 Kbps

Video
ID                               : 1
Format                           : AVC
Format/Info                      : Advanced Video Codec
Format profile                   : High@L3.1
Format settings, CABAC           : Yes
Format settings, ReFrames        : 10 frames
Codec ID                         : V_MPEG4/ISO/AVC
Duration                         : 1h 37mn
Bit rate                         : 1 348 Kbps
Width                            : 720 pixels
Height                           : 408 pixels
Display aspect ratio             : 2.35:1
Original display aspect ratio    : 16:9
Frame rate                       : 23.976 fps
Resolution                       : 8 bits
Colorimetry                      : 4:2:0
Scan type                        : Progressive
Bits/(Pixel*Frame)               : 0.191
Stream size                      : 936 MiB (91%)
Language                         : English

Audio
ID                               : 2
Format                           : MPEG Audio
Format version                   : Version 1
Format profile                   : Layer 3
Mode                             : Joint stereo
Format_Settings_ModeExtension    : MS Stereo
Codec ID                         : A_MPEG/L3
Codec ID/Hint                    : MP3
Duration                         : 1h 37mn
Bit rate mode                    : Constant
Bit rate                         : 96.0 Kbps
Channel(s)                       : 2 channels
Sampling rate                    : 32.0 KHz
Video delay                      : 1s 700ms
Stream size                      : 66.7 MiB (7%)
Writing library                  : LAME3.98.2